<svg width="28" height="28" viewBox="0 0 28 28" fill="none" xmlns="http://www.w3.org/2000/svg">
<path d="M18.7433 10.494C19.085 10.1523 19.085 9.59823 18.7433 9.25653C18.4016 8.91482 17.8476 8.91482 17.5059 9.25653L13.9998 12.7626L10.4937 9.25653C10.152 8.91482 9.598 8.91482 9.25629 9.25653C8.91458 9.59823 8.91458 10.1523 9.25629 10.494L12.7624 14L9.25628 17.5061C8.91457 17.8478 8.91457 18.4018 9.25628 18.7435C9.59799 19.0852 10.152 19.0852 10.4937 18.7435L13.9998 15.2375L17.5059 18.7435C17.8476 19.0853 18.4016 19.0853 18.7433 18.7435C19.085 18.4018 19.085 17.8478 18.7433 17.5061L15.2372 14L18.7433 10.494Z" fill="#595959"/>
</svg>
