<svg width="24" height="24" viewBox="0 0 24 24" fill="none" xmlns="http://www.w3.org/2000/svg">
<path d="M11.5433 7.85453L12.0001 8.39097L12.4569 7.85453C13.0444 7.16469 13.9482 6.72793 14.8801 6.72793C16.5199 6.72793 17.8001 8.0081 17.8001 9.64793C17.8001 10.6604 17.3502 11.626 16.4357 12.7441C15.5143 13.8705 14.1851 15.0773 12.5251 16.5827L12.5242 16.5834L11.9986 17.0619L11.4756 16.5895C11.4754 16.5893 11.4752 16.5891 11.4749 16.5889C9.81505 15.0805 8.48605 13.8723 7.56466 12.745C6.65004 11.626 6.2001 10.6604 6.2001 9.64793C6.2001 8.0081 7.48027 6.72793 9.1201 6.72793C10.052 6.72793 10.9558 7.16469 11.5433 7.85453Z" stroke="#595959" stroke-width="1.2"/>
</svg>
