<svg width="24" height="24" viewBox="0 0 24 24" fill="none" xmlns="http://www.w3.org/2000/svg">
<rect width="24" height="24" rx="12" fill="#EF1C31"/>
<path d="M14.375 9.06923C14.375 9.9731 13.6521 10.7058 12.7603 10.7058C11.8685 10.7058 11.1455 9.9731 11.1455 9.06923C11.1455 8.16536 11.8685 7.43262 12.7603 7.43262C13.6521 7.43262 14.375 8.16536 14.375 9.06923Z" fill="white"/>
<path d="M8.10134 10.9946C7.55613 10.9075 7.29282 11.6382 7.76829 11.9189L9.95994 13.2126L4.88002 19.9598C4.65795 20.2547 5.0613 20.6124 5.32754 20.3566L12.629 13.341C13.2244 12.769 12.9092 11.7627 12.0939 11.6325L8.10134 10.9946Z" fill="white"/>
<path d="M12.2836 14.804L10.5772 16.4455L11.7291 17.9868L9.83724 19.0904C9.53114 19.269 9.73322 19.7374 10.0732 19.6373L13.3696 18.6665C14.0244 18.4736 14.2978 17.6958 13.9076 17.1357L12.2836 14.804Z" fill="white"/>
<path d="M15.0484 4.27958C14.962 4.52582 15.0802 4.79571 15.3129 4.91399C16.124 5.32635 16.8788 5.87492 17.5421 6.56368C17.9206 6.96011 18.249 7.37848 18.5354 7.81049C18.6876 8.04 18.9919 8.1199 19.2295 7.98063L21.4949 6.65256C21.7388 6.50957 21.8166 6.19228 21.6548 5.96038C21.4659 5.68949 21.2609 5.4205 21.0399 5.15699C19.7888 3.6595 18.3929 2.38117 16.5047 1.62633C16.2502 1.52457 15.9672 1.66311 15.8764 1.92176L15.0484 4.27958Z" fill="white"/>
<path d="M3.00662 7.26647C3.20963 7.41969 3.49458 7.39544 3.67787 7.21911C4.70443 6.23158 6.17783 5.1942 7.27379 4.70929C7.31531 4.69129 7.35733 4.67329 7.39975 4.6554C7.67364 4.53988 7.80694 4.21938 7.67928 3.95093L7.05939 2.64744C6.93739 2.39089 6.62573 2.28644 6.38121 2.43104C4.9444 3.28073 3.91312 4.35396 3.17528 5.31672C2.91952 5.65274 2.69043 5.98876 2.48315 6.32726C2.3524 6.54078 2.41086 6.8168 2.6107 6.96763L3.00662 7.26647Z" fill="white"/>
<path d="M15.0756 1.74325C15.1735 1.46515 15.0109 1.16214 14.7213 1.10678C14.1507 0.997699 13.5389 0.930705 12.8805 0.911344C10.9769 0.843092 9.38528 1.13911 8.0571 1.63289C7.79104 1.7318 7.67567 2.03905 7.79745 2.29545L8.53735 3.85329C8.63958 4.06854 8.87923 4.18035 9.11263 4.13232C10.5828 3.82977 12.1656 3.86182 13.6605 4.27694C13.924 4.35011 14.205 4.21443 14.2958 3.95649L15.0756 1.74325Z" fill="white"/>
<path d="M2.80787 8.19261C2.82059 8.17749 2.81368 8.15381 2.79793 8.14188L2.37307 7.81986C2.11939 7.62759 1.75216 7.719 1.63272 8.01405C0.246752 11.4378 0.842481 14.5944 0.941215 15.0551C0.948751 15.0903 0.979443 15.1128 1.01541 15.1128V15.1128C1.06461 15.1128 1.1021 15.068 1.09445 15.0194C1.00302 14.4386 0.62685 11.245 2.80439 8.19702C2.80562 8.19529 2.80651 8.19424 2.80787 8.19261V8.19261Z" fill="white"/>
<path d="M19.5854 8.7349C19.3608 8.86664 19.2763 9.14872 19.3792 9.38793C20.2883 11.5015 20.4092 13.612 20.4101 14.5739C20.4103 14.8649 20.6437 15.1128 20.9347 15.1128H23.221C23.4563 15.1128 23.6581 14.9482 23.6906 14.7151C23.8376 13.6593 24.07 10.655 22.5955 7.57207C22.473 7.316 22.1565 7.22693 21.9117 7.37054L19.5854 8.7349Z" fill="white"/>
</svg>
