<svg width="92" height="20" viewBox="0 0 92 20" fill="none" xmlns="http://www.w3.org/2000/svg">
<path d="M5.69318 18.3068C4.86364 18.3068 4.1108 18.1506 3.43466 17.8381C2.75852 17.5199 2.22159 17.0625 1.82386 16.4659C1.42614 15.8636 1.22727 15.1364 1.22727 14.2841C1.22727 13.5341 1.375 12.9261 1.67045 12.4602C1.96591 11.9886 2.3608 11.6193 2.85511 11.3523C3.34943 11.0852 3.89489 10.8864 4.49148 10.7557C5.09375 10.6193 5.69886 10.5114 6.30682 10.4318C7.10227 10.3295 7.74716 10.2528 8.24148 10.2017C8.74148 10.1449 9.10511 10.0511 9.33239 9.92045C9.56534 9.78977 9.68182 9.5625 9.68182 9.23864V9.17045C9.68182 8.32955 9.4517 7.67614 8.99148 7.21023C8.53693 6.74432 7.84659 6.51136 6.92045 6.51136C5.96023 6.51136 5.20739 6.72159 4.66193 7.14205C4.11648 7.5625 3.73295 8.01136 3.51136 8.48864L1.60227 7.80682C1.94318 7.01136 2.39773 6.39205 2.96591 5.94886C3.53977 5.5 4.16477 5.1875 4.84091 5.01136C5.52273 4.82955 6.19318 4.73864 6.85227 4.73864C7.27273 4.73864 7.75568 4.78977 8.30114 4.89204C8.85227 4.98864 9.38352 5.19034 9.89489 5.49716C10.4119 5.80398 10.8409 6.26705 11.1818 6.88636C11.5227 7.50568 11.6932 8.33523 11.6932 9.375V18H9.68182V16.2273H9.57955C9.44318 16.5114 9.21591 16.8153 8.89773 17.1392C8.57955 17.4631 8.15625 17.7386 7.62784 17.9659C7.09943 18.1932 6.45455 18.3068 5.69318 18.3068ZM6 16.5C6.79545 16.5 7.46591 16.3438 8.01136 16.0312C8.5625 15.7188 8.97727 15.3153 9.25568 14.821C9.53977 14.3267 9.68182 13.8068 9.68182 13.2614V11.4205C9.59659 11.5227 9.40909 11.6165 9.11932 11.7017C8.83523 11.7812 8.50568 11.8523 8.13068 11.9148C7.76136 11.9716 7.40057 12.0227 7.0483 12.0682C6.7017 12.108 6.42045 12.142 6.20455 12.1705C5.68182 12.2386 5.19318 12.3494 4.73864 12.5028C4.28977 12.6506 3.92614 12.875 3.64773 13.1761C3.375 13.4716 3.23864 13.875 3.23864 14.3864C3.23864 15.0852 3.49716 15.6136 4.0142 15.9716C4.53693 16.3239 5.19886 16.5 6 16.5ZM21.0575 4.90909V6.61364H14.2734V4.90909H21.0575ZM16.2507 1.77273H18.2621V14.25C18.2621 14.8182 18.3445 15.2443 18.5092 15.5284C18.6797 15.8068 18.8956 15.9943 19.157 16.0909C19.424 16.1818 19.7053 16.2273 20.0007 16.2273C20.2223 16.2273 20.4041 16.2159 20.5462 16.1932C20.6882 16.1648 20.8018 16.142 20.8871 16.125L21.2962 17.9318C21.1598 17.983 20.9695 18.0341 20.7251 18.0852C20.4808 18.142 20.1712 18.1705 19.7962 18.1705C19.228 18.1705 18.6712 18.0483 18.1257 17.804C17.5859 17.5597 17.1371 17.1875 16.7791 16.6875C16.4268 16.1875 16.2507 15.5568 16.2507 14.7955V1.77273ZM31.1143 9.57955V11.4545H23.478V9.57955H31.1143Z" fill="#333153"/>
<path d="M37.0312 18L33.4688 4.90909H37.142L39.1705 13.7045H39.2898L41.4034 4.90909H45.0085L47.1562 13.6534H47.267L49.2614 4.90909H52.9261L49.3722 18H45.5284L43.2784 9.76705H43.1165L40.8665 18H37.0312ZM60.4496 18.2557C59.1257 18.2557 57.9808 17.9744 57.0149 17.4119C56.0547 16.8437 55.3132 16.054 54.7905 15.0426C54.2678 14.0256 54.0064 12.8466 54.0064 11.5057C54.0064 10.1534 54.2678 8.97159 54.7905 7.96023C55.3132 6.94318 56.0547 6.15341 57.0149 5.59091C57.9808 5.02273 59.1257 4.73864 60.4496 4.73864C61.7734 4.73864 62.9155 5.02273 63.8757 5.59091C64.8416 6.15341 65.5859 6.94318 66.1087 7.96023C66.6314 8.97159 66.8928 10.1534 66.8928 11.5057C66.8928 12.8466 66.6314 14.0256 66.1087 15.0426C65.5859 16.054 64.8416 16.8437 63.8757 17.4119C62.9155 17.9744 61.7734 18.2557 60.4496 18.2557ZM60.4666 15.4432C61.0689 15.4432 61.5717 15.2727 61.9751 14.9318C62.3786 14.5852 62.6825 14.1136 62.8871 13.517C63.0973 12.9205 63.2024 12.2415 63.2024 11.4801C63.2024 10.7188 63.0973 10.0398 62.8871 9.44318C62.6825 8.84659 62.3786 8.375 61.9751 8.02841C61.5717 7.68182 61.0689 7.50852 60.4666 7.50852C59.8587 7.50852 59.3473 7.68182 58.9325 8.02841C58.5234 8.375 58.2138 8.84659 58.0036 9.44318C57.799 10.0398 57.6967 10.7188 57.6967 11.4801C57.6967 12.2415 57.799 12.9205 58.0036 13.517C58.2138 14.1136 58.5234 14.5852 58.9325 14.9318C59.3473 15.2727 59.8587 15.4432 60.4666 15.4432ZM69.2536 18V4.90909H72.7734V7.19318H72.9098C73.1484 6.38068 73.549 5.76705 74.1115 5.35227C74.674 4.93182 75.3217 4.72159 76.0547 4.72159C76.2365 4.72159 76.4325 4.73295 76.6428 4.75568C76.853 4.77841 77.0376 4.80966 77.1967 4.84943V8.07102C77.0263 8.01989 76.7905 7.97443 76.4893 7.93466C76.1882 7.89489 75.9126 7.875 75.6626 7.875C75.1286 7.875 74.6513 7.99148 74.2308 8.22443C73.8161 8.4517 73.4865 8.76989 73.2422 9.17898C73.0036 9.58807 72.8842 10.0597 72.8842 10.5938V18H69.2536ZM82.3636 14.233L82.3722 9.87784H82.9006L87.0938 4.90909H91.2614L85.6278 11.4886H84.767L82.3636 14.233ZM79.0739 18V0.545454H82.7045V18H79.0739ZM87.2557 18L83.4034 12.2983L85.8239 9.73295L91.5085 18H87.2557Z" fill="#333153"/>
</svg>
