<svg width="24" height="24" viewBox="0 0 24 24" fill="none" xmlns="http://www.w3.org/2000/svg">
<g clip-path="url(#clip0_28_7959)">
<path d="M11 14.75C11 15.4375 11.5625 16 12.25 16C12.9375 16 13.5 15.4375 13.5 14.75C13.5 14.0625 12.9375 13.5 12.25 13.5C11.5625 13.5 11 14.0625 11 14.75ZM11 7.25C11 7.9375 11.5625 8.5 12.25 8.5C12.9375 8.5 13.5 7.9375 13.5 7.25C13.5 6.5625 12.9375 6 12.25 6C11.5625 6 11 6.5625 11 7.25ZM11 11C11 11.6875 11.5625 12.25 12.25 12.25C12.9375 12.25 13.5 11.6875 13.5 11C13.5 10.3125 12.9375 9.75 12.25 9.75C11.5625 9.75 11 10.3125 11 11Z" fill="#161616"/>
</g>
<defs>
<clipPath id="clip0_28_7959">
<rect width="24" height="24" fill="white"/>
</clipPath>
</defs>
</svg>
